<?xml version="1.0" encoding="UTF-8" standalone="no"?>
<svg
   height="48px"
   viewBox="0 0 24 24"
   width="48px"
   fill="#F5F5F5"
   version="1.1"
   id="svg2"
   sodipodi:docname="360_2_64dp_F5F5F5.svg"
   inkscape:version="1.3.2 (091e20e, 2023-11-25, custom)"
   xmlns:inkscape="http://www.inkscape.org/namespaces/inkscape"
   xmlns:sodipodi="http://sodipodi.sourceforge.net/DTD/sodipodi-0.dtd"
   xmlns="http://www.w3.org/2000/svg"
   xmlns:svg="http://www.w3.org/2000/svg">
  <defs
     id="defs2" />
  <sodipodi:namedview
     id="namedview2"
     pagecolor="#ffffff"
     bordercolor="#000000"
     borderopacity="0.25"
     inkscape:showpageshadow="2"
     inkscape:pageopacity="0.0"
     inkscape:pagecheckerboard="0"
     inkscape:deskcolor="#d1d1d1"
     inkscape:zoom="24.4375"
     inkscape:cx="23.97954"
     inkscape:cy="17.452685"
     inkscape:window-width="3440"
     inkscape:window-height="1369"
     inkscape:window-x="2552"
     inkscape:window-y="-8"
     inkscape:window-maximized="1"
     inkscape:current-layer="svg2" />
  <path
     d="M 24,0 V 24 H 0 V 0 Z"
     fill="none"
     id="path1" />
  <path
     d="M 17,12 C 17,6.48 14.76,2 12,2 9.76,2 7.87,4.94 7.23,9 H 4 l 4,4 4,-4 H 9.27 C 9.83,5.85 11.17,4 12,4 c 1.06,0 3,3.04 3,8 0,4.96 -1.94,8 -3,8 -0.73,0 -1.89,-1.46 -2.53,-4 H 7.42 c 0.77,3.53 2.53,6 4.58,6 2.76,0 5,-4.48 5,-10 z"
     id="path2" />
</svg>
